<svg width="1440" height="143" viewBox="0 0 1440 143" fill="none" xmlns="http://www.w3.org/2000/svg">
<g filter="url(#filter0_if)">
<path d="M3.79115e-06 0H1440C1440 0 1440 65.5551 1440 119.992C1440 174.43 1254.63 88.0988 1139 87.9526C1022 87.8047 934.496 118.642 817.5 118.6C700.893 118.558 575.607 87.9526 459 87.9526C342.393 87.9526 217.093 120.877 100.5 118.6C1.7915 116.672 1.23212e-05 110.35 3.79115e-06 87.9526C-4.73894e-06 65.5551 3.79115e-06 0 3.79115e-06 0Z" fill="url(#paint0_linear)"/>
</g>
<defs>
<filter id="filter0_if" x="-5" y="-5" width="1450" height="168" filterUnits="userSpaceOnUse" color-interpolation-filters="sRGB">
<feFlood flood-opacity="0" result="BackgroundImageFix"/>
<feBlend mode="normal" in="SourceGraphic" in2="BackgroundImageFix" result="shape"/>
<feColorMatrix in="SourceAlpha" type="matrix" values="0 0 0 0 0 0 0 0 0 0 0 0 0 0 0 0 0 0 127 0" result="hardAlpha"/>
<feOffset dy="25"/>
<feGaussianBlur stdDeviation="25"/>
<feComposite in2="hardAlpha" operator="arithmetic" k2="-1" k3="1"/>
<feColorMatrix type="matrix" values="0 0 0 0 0 0 0 0 0 0 0 0 0 0 0 0 0 0 0.25 0"/>
<feBlend mode="normal" in2="shape" result="effect1_innerShadow"/>
<feGaussianBlur stdDeviation="2.5" result="effect2_foregroundBlur"/>
</filter>
<linearGradient id="paint0_linear" x1="719.999" y1="0" x2="719.999" y2="162.637" gradientUnits="userSpaceOnUse">
<stop offset="0.0862647"/>
<stop offset="0.353249" stop-color="#08111A" stop-opacity="0.8"/>
<stop offset="1" stop-color="#0C1D2D" stop-opacity="0.01"/>
</linearGradient>
</defs>
</svg>
